/* XPM */
static char *slimrat[] = {
/* columns rows colors chars-per-pixel */
"32 32 175 2",
"   c #2B3137",
".  c #3B523F",
"X  c #385C3C",
"o  c #376E36",
"O  c #39663A",
"+  c #397B36",
"@  c #427E3F",
"#  c #393F45",
"$  c #3E434B",
"%  c #3B5341",
"&  c #434847",
"*  c #42464C",
"=  c #4B474B",
"-  c #44484E",
";  c #4B4D4C",
":  c #504F4C",
">  c #54514F",
",  c #424750",
"<  c #464B53",
"1  c #494E55",
"2  c #4C4F59",
"3  c #4D5054",
"4  c #495A52",
"5  c #4D525A",
"6  c #545553",
"7  c #585651",
"8  c #5D5A55",
"9  c #52565E",
"0  c #53595E",
"q  c #5F5E59",
"w  c #416944",
"e  c #46634C",
"r  c #4C7E4B",
"t  c #4E6D54",
"y  c #55645E",
"u  c #556C5B",
"i  c #5A6D5F",
"p  c #4F7B50",
"a  c #517455",
"s  c #577E56",
"d  c #56705B",
"f  c #5B745D",
"g  c #65625A",
"h  c #6A665E",
"j  c #565764",
"k  c #575B63",
"l  c #585C64",
"z  c #576160",
"x  c #5A6263",
"c  c #5D6D61",
"v  c #5E6269",
"b  c #666661",
"n  c #636E67",
"m  c #6E6A61",
"M  c #61666C",
"N  c #726E63",
"B  c #637264",
"V  c #647C61",
"C  c #6C7D68",
"Z  c #7A7365",
"A  c #7D776A",
"S  c #7F7869",
"D  c #666971",
"F  c #6B6F74",
"G  c #6B7075",
"H  c #6F737A",
"J  c #7E7A71",
"K  c #72767C",
"L  c #767B7C",
"P  c #817A6D",
"I  c #3B8C36",
"U  c #3D9336",
"Y  c #4D874A",
"T  c #4C8949",
"R  c #52854F",
"E  c #558A4F",
"W  c #479141",
"Q  c #4C9445",
"!  c #509149",
"~  c #548351",
"^  c #588254",
"/  c #578A51",
"(  c #5C8C54",
")  c #5B9152",
"_  c #63835D",
"`  c #658B5B",
"'  c #659956",
"]  c #669259",
"[  c #70985F",
"{  c #678460",
"}  c #6D8266",
"|  c #6C8C61",
" . c #708E63",
".. c #708468",
"X. c #758B68",
"o. c #769366",
"O. c #799169",
"+. c #748371",
"@. c #809D6B",
"#. c #8C8577",
"$. c #918772",
"%. c #928976",
"&. c #948C7A",
"*. c #988F7C",
"=. c #839579",
"-. c #99907F",
";. c #83A06C",
":. c #777A81",
">. c #7A7D83",
",. c #7D8085",
"<. c #7E8388",
"1. c #868887",
"2. c #868B8B",
"3. c #888B8F",
"4. c #9D9483",
"5. c #919F8A",
"6. c #898D91",
"7. c #8E9196",
"8. c #9D9F9F",
"9. c #A09786",
"0. c #A19887",
"q. c #A59C8C",
"w. c #A89F8E",
"e. c #A79F90",
"r. c #A89F90",
"t. c #A9A08E",
"y. c #ACA494",
"u. c #A6A399",
"i. c #AEA798",
"p. c #AFA898",
"a. c #B0A897",
"s. c #B2AB9C",
"d. c #9B9EA2",
"f. c #A1A4A7",
"g. c #A8ABAD",
"h. c #B4AEA0",
"j. c #B7B0A2",
"k. c #B9B2A4",
"l. c #BDB6A9",
"z. c #BEB8AD",
"x. c #B2B3B1",
"c. c #B7B9BB",
"v. c #BBBCBB",
"b. c #C3BDAE",
"n. c #C3BDB2",
"m. c #C6C1B5",
"M. c #C9C2B6",
"N. c #C4C2BE",
"B. c #CBC5BA",
"V. c #CEC9BF",
"C. c #D0CBBF",
"Z. c #CECAC2",
"A. c #C5C6C9",
"S. c #D2CDC2",
"D. c #D7D1C7",
"F. c #D6D3CA",
"G. c #D9D5CC",
"H. c #DED9CE",
"J. c #CED0D2",
"K. c #D3D4D6",
"L. c #DAD7D1",
"P. c #DDD9D1",
"I. c #D7D8D8",
"U. c #DCDCDD",
"Y. c #E2DED4",
"T. c #E2DFDA",
"R. c #E6E1D7",
"E. c #E4E1DB",
"W. c #EAE6DC",
"Q. c #EDE9DF",
"!. c #E6E5E2",
"~. c #EDE9E1",
"^. c #EBEBEA",
"/. c #F5F5F3",
"(. c None",
/* pixels */
"(.(.(.(.(.(.(.(.(.(.(.(.(.(.(.(.(.(.j.B.k.a.t.t.w.s.D.(.(.(.(.(.",
"(.(.(.(.(.(.(.(.(.(.L.B.s.4.4.i.a.s.s.l.b.b.M.M.b.s.w.z.(.(.(.(.",
"(.(.(.(.(.(.z.k.i.w.p.l.m.Z.G.!.E.G.Z.A.x.d.2.L F 1.u.4.(.(.(.(.",
"(.(.(.(.w.a.Z.P.T.!.^.!.J.c.f.6.:.G l < $ * - 1 1 = S i.h.(.(.(.",
"(.(.m.4.Z.^.K.v.d.<.M k 5 < , $ - < 5 0 0 x 0 l l 5 8 y.-.(.(.(.",
"(.(.k.l./.g.5 , < 9 k x M D F F B ..X.O.X.B k k l 5 6 e.*.(.(.(.",
"(.(.h.F.U.l 5 H K :.,.<.<.2.5.=.X.;.;.o.n l l l l k 6 4.k.(.(.(.",
"(.(.p.F.A.$ D >.,.:.:.:.L =.+.x l v } o.V l l l k j 3 #.l.(.(.(.",
"(.(.i.S.A.$ M K K H D v C X.c l l l B | | x l k k k ; S l.(.(.(.",
"(.(.l.Z.J.1 v G G v l x } | c l l j c | { z k k k k 3 Z k.(.(.(.",
"(.(.n.n.K.k l D v l l x | [ V x j k V { z l k k k 0 < N s.(.(.(.",
"(.(.n.l.I.v 9 v v l j l c ` ] _ c f ^ c j j l k k k < m y.(.(.(.",
"(.(.(.h.U.G 2 l l l k l k i i c ^ ' ` i l l l k l l 3 b t.w.(.(.",
"(.(.(.p.E.K 2 l l l k k l l l l f ) ) / / u j k l l < g w.n.(.(.",
"(.(.(.s.!.>.< l l k k l l k d ~ / ~ ^ / / / y j l l 2 q w.B.(.(.",
"(.(.(.y.W.2., l j l k k k d ~ f x z k z Y Q d l l l 2 8 0.n.(.(.",
"(.(.(.p.W.7.$ k l k l z ^ R z j l l l j a Y z k l k 1 7 4.k.(.(.",
"(.(.(.y.R.d.* 9 k k l u ! ~ l l l l l k p a k 0 5 5 $ ; w.k.(.(.",
"(.(.(.i.H.g.< 9 l k l a W T u y z t r + e 1 < * & - ; m y.n.(.(.",
"(.(.(.a.S.x.< 5 l k l y p W U I I + o % & - : g A &.e.i.i.Z.(.(.",
"(.(.(.%.b.v.3 1 k k 9 5 4 w O X % & : 8 m #.0.e.i.k.k.y.(.(.(.(.",
"(.(.(.-.k.B.3 $ < < , & # * = > h P &.t.s.y.s.n.m.(.(.(.(.(.(.(.",
"(.(.(.z.w.C.l   # * ; 7 g A 4.q.y.s.k.a.y.q.b.b.h.n.(.(.(.(.(.(.",
"(.(.(.(.t.y.u.b h A #.0.y.w.q.h.j.j.b.B.V.y.a.k.b.a.j.(.(.(.(.(.",
"(.(.(.(.G.0.0.j.y.i.a.r.*.%.y.M.S.G.R.Q.W.M.n.M.B.M.y.a.E.(.(.(.",
"(.(.(.(.(.(.h.l.y.w.w.s.k.h.M.R.Q.Q.Q.R.Y.B.n.S.H.R.G.w.h.(.(.(.",
"(.(.(.(.(.(.(.h.n.M.M.M.B.n.C.W.W.H.D.D.F.Y.W.Q.W.Y.B.i.r.(.(.(.",
"(.(.(.(.(.(.(.p.Z.P.Z.B.B.M.C.H.D.G.Y.W.~.Q.P.M.y.0.4.r.Z.(.(.(.",
"(.(.(.(.(.(.(.h.y.B.L.S.D.F.H.R.Q.W.W.G.n.y.*.9.y.k.(.(.(.(.(.(.",
"(.(.(.(.(.(.(.(.s.w.m.T.Q.~.~.R.D.b.q.4.*.y.n.(.(.(.(.(.(.(.(.(.",
"(.(.(.(.(.(.(.(.(.n.w.z.F.V.j.q.&.q.a.m.(.(.(.(.(.(.(.(.(.(.(.(.",
"(.(.(.(.(.(.(.(.(.(.a.0.4.$.*.j.(.(.(.(.(.(.(.(.(.(.(.(.(.(.(.(."
};
